<?xml version="1.0" encoding="UTF-8" standalone="no"?>
<svg width="100%" height="100%" viewbox="0 0 640 640" version="1.1" xmlns="http://www.w3.org/2000/svg" style="fill-rule:evenodd;clip-rule:evenodd;stroke-linejoin:round;stroke-miterlimit:2;">
    <g transform="matrix(1,0,0,1,2.63765,-18.4635)">
        <g id="Hail" transform="matrix(15.7439,-7.76091e-17,1.56962e-16,15.7439,-5098.26,-3238.95)">
            <path d="M327.5,223.362L327.5,235.002C327.5,235.554 327.948,236 328.5,236C329.056,236 329.5,235.553 329.5,235.002L329.5,228.5L330,228.5L330,235.002C330,235.554 330.448,236 331,236C331.556,236 332,235.553 332,235.002L332,223.495L332.493,223.495C332.817,223.495 332.988,223.932 333.013,224L333,224L333,227.757C333,228.162 333.336,228.5 333.75,228.5C334.167,228.5 334.5,228.167 334.5,227.757L334.5,224L334.49,224C334.474,223.812 334.365,222.857 333.766,221.935C333.37,221.325 332.579,221.102 332,221.021L332,221L331.824,221C331.518,220.969 331.305,220.978 331.305,220.978L331.305,221L327.55,221L326.024,219.834C325.819,219.678 325.61,219.313 325.58,219.037L325.206,215.586C325.183,215.372 324.986,215.191 324.767,215.198L324.638,215.203C324.421,215.21 324.249,215.393 324.257,215.611L324.414,220.205C324.423,220.49 324.598,220.857 324.805,221.035L327.5,223.362ZM329.6,220.5C330.705,220.5 331.6,219.605 331.6,218.5C331.6,217.395 330.705,216.5 329.6,216.5C328.495,216.5 327.6,217.395 327.6,218.5C327.6,219.605 328.495,220.5 329.6,220.5Z"/>
        </g>
        <g id="Hail1" serifId="Hail" transform="matrix(12.0274,-5.92885e-17,1.19909e-16,12.0274,-3740.6,-2567.02)">
            <path d="M327.5,223.362L327.5,235.002C327.5,235.554 327.948,236 328.5,236C329.056,236 329.5,235.553 329.5,235.002L329.5,228.5L330,228.5L330,235.002C330,235.554 330.448,236 331,236C331.556,236 332,235.553 332,235.002L332,223.495L332.493,223.495C332.817,223.495 332.988,223.932 333.013,224L333,224L333,227.757C333,228.162 333.336,228.5 333.75,228.5C334.167,228.5 334.5,228.167 334.5,227.757L334.5,224L334.49,224C334.474,223.812 334.365,222.857 333.766,221.935C333.37,221.325 332.579,221.102 332,221.021L332,221L331.824,221C331.518,220.969 331.305,220.978 331.305,220.978L331.305,221L327.55,221L326.024,219.834C325.819,219.678 325.61,219.313 325.58,219.037L325.206,215.586C325.183,215.372 324.986,215.191 324.767,215.198L324.638,215.203C324.421,215.21 324.249,215.393 324.257,215.611L324.414,220.205C324.423,220.49 324.598,220.857 324.805,221.035L327.5,223.362ZM329.6,220.5C330.705,220.5 331.6,219.605 331.6,218.5C331.6,217.395 330.705,216.5 329.6,216.5C328.495,216.5 327.6,217.395 327.6,218.5C327.6,219.605 328.495,220.5 329.6,220.5Z"/>
        </g>
        <g id="Hail2" serifId="Hail" transform="matrix(14.0252,-6.91367e-17,1.39827e-16,14.0252,-4066.08,-2910.49)">
            <path d="M327.5,223.362L327.5,235.002C327.5,235.554 327.948,236 328.5,236C329.056,236 329.5,235.553 329.5,235.002L329.5,228.5L330,228.5L330,235.002C330,235.554 330.448,236 331,236C331.556,236 332,235.553 332,235.002L332,223.495L332.493,223.495C332.817,223.495 332.988,223.932 333.013,224L333,224L333,227.757C333,228.162 333.336,228.5 333.75,228.5C334.167,228.5 334.5,228.167 334.5,227.757L334.5,224L334.49,224C334.474,223.812 334.365,222.857 333.766,221.935C333.37,221.325 332.579,221.102 332,221.021L332,221L331.824,221C331.518,220.969 331.305,220.978 331.305,220.978L331.305,221L327.55,221L326.024,219.834C325.819,219.678 325.61,219.313 325.58,219.037L325.206,215.586C325.183,215.372 324.986,215.191 324.767,215.198L324.638,215.203C324.421,215.21 324.249,215.393 324.257,215.611L324.414,220.205C324.423,220.49 324.598,220.857 324.805,221.035L327.5,223.362ZM329.6,220.5C330.705,220.5 331.6,219.605 331.6,218.5C331.6,217.395 330.705,216.5 329.6,216.5C328.495,216.5 327.6,217.395 327.6,218.5C327.6,219.605 328.495,220.5 329.6,220.5Z"/>
        </g>
        <g id="Hail3" serifId="Hail" transform="matrix(15.2459,-7.51539e-17,1.51997e-16,15.2459,-4637.86,-3060.43)">
            <path d="M327.5,223.362L327.5,235.002C327.5,235.554 327.948,236 328.5,236C329.056,236 329.5,235.553 329.5,235.002L329.5,228.5L330,228.5L330,235.002C330,235.554 330.448,236 331,236C331.556,236 332,235.553 332,235.002L332,223.495L332.493,223.495C332.817,223.495 332.988,223.932 333.013,224L333,224L333,227.757C333,228.162 333.336,228.5 333.75,228.5C334.167,228.5 334.5,228.167 334.5,227.757L334.5,224L334.49,224C334.474,223.812 334.365,222.857 333.766,221.935C333.37,221.325 332.579,221.102 332,221.021L332,221L331.824,221C331.518,220.969 331.305,220.978 331.305,220.978L331.305,221L327.55,221L327.5,223.362ZM329.6,220.5C330.705,220.5 331.6,219.605 331.6,218.5C331.6,217.395 330.705,216.5 329.6,216.5C328.495,216.5 327.6,217.395 327.6,218.5C327.6,219.605 328.495,220.5 329.6,220.5Z"/>
        </g>
        <g id="Hail4" serifId="Hail" transform="matrix(21.7909,-1.07417e-16,2.17249e-16,21.7909,-6989.04,-4360.15)">
            <path d="M327.5,223.362L327.5,235.002C327.5,235.554 327.948,236 328.5,236C329.056,236 329.5,235.553 329.5,235.002L329.5,228.5L330,228.5L330,235.002C330,235.554 330.448,236 331,236C331.556,236 332,235.553 332,235.002L332,223.495L332.493,223.495C332.817,223.495 332.988,223.932 333.013,224L333,224L333,227.757C333,228.162 333.336,228.5 333.75,228.5C334.167,228.5 334.5,228.167 334.5,227.757L334.5,224L334.49,224C334.474,223.812 334.365,222.857 333.766,221.935C333.37,221.325 332.579,221.102 332,221.021L332,221L331.824,221C331.518,220.969 331.305,220.978 331.305,220.978L331.305,221L327.55,221L327.5,223.362ZM329.6,220.5C330.705,220.5 331.6,219.605 331.6,218.5C331.6,217.395 330.705,216.5 329.6,216.5C328.495,216.5 327.6,217.395 327.6,218.5C327.6,219.605 328.495,220.5 329.6,220.5Z"/>
        </g>
        <g id="Hail5" serifId="Hail" transform="matrix(-15.2459,-7.51539e-17,-1.51997e-16,15.2459,5415.75,-3060.43)">
            <path d="M327.5,223.362L327.5,235.002C327.5,235.554 327.948,236 328.5,236C329.056,236 329.5,235.553 329.5,235.002L329.5,228.5L330,228.5L330,235.002C330,235.554 330.448,236 331,236C331.556,236 332,235.553 332,235.002L332,223.495L332.493,223.495C332.817,223.495 332.988,223.932 333.013,224L333,224L333,227.757C333,228.162 333.336,228.5 333.75,228.5C334.167,228.5 334.5,228.167 334.5,227.757L334.5,224L334.49,224C334.474,223.812 334.365,222.857 333.766,221.935C333.37,221.325 332.579,221.102 332,221.021L332,221L331.824,221C331.518,220.969 331.305,220.978 331.305,220.978L331.305,221L327.55,221L327.5,223.362ZM329.6,220.5C330.705,220.5 331.6,219.605 331.6,218.5C331.6,217.395 330.705,216.5 329.6,216.5C328.495,216.5 327.6,217.395 327.6,218.5C327.6,219.605 328.495,220.5 329.6,220.5Z"/>
        </g>
        <g id="Hail6" serifId="Hail" transform="matrix(-21.7909,-1.07417e-16,-2.17249e-16,21.7909,7380.56,-4360.15)">
            <path d="M327.5,223.362L327.5,235.002C327.5,235.554 327.948,236 328.5,236C329.056,236 329.5,235.553 329.5,235.002L329.5,228.5L330,228.5L330,235.002C330,235.554 330.448,236 331,236C331.556,236 332,235.553 332,235.002L332,223.495L332.493,223.495C332.817,223.495 332.988,223.932 333.013,224L333,224L333,227.757C333,228.162 333.336,228.5 333.75,228.5C334.167,228.5 334.5,228.167 334.5,227.757L334.5,224L334.49,224C334.474,223.812 334.365,222.857 333.766,221.935C333.37,221.325 332.579,221.102 332,221.021L332,221L331.824,221C331.518,220.969 331.305,220.978 331.305,220.978L331.305,221L327.55,221L327.5,223.362ZM329.6,220.5C330.705,220.5 331.6,219.605 331.6,218.5C331.6,217.395 330.705,216.5 329.6,216.5C328.495,216.5 327.6,217.395 327.6,218.5C327.6,219.605 328.495,220.5 329.6,220.5Z"/>
        </g>
    </g>
</svg>
